<svg xmlns="http://www.w3.org/2000/svg" xmlns:xlink="http://www.w3.org/1999/xlink" version="1.1" width="256" height="256" viewBox="0 0 256 256" xml:space="preserve">

<defs>
</defs>
<g style="stroke: none; stroke-width: 0; stroke-dasharray: none; stroke-linecap: butt; stroke-linejoin: miter; stroke-miterlimit: 10; fill: none; fill-rule: nonzero; opacity: 1;" transform="translate(1.4065934065934016 1.4065934065934016) scale(2.81 2.81)" >
	<path d="M 8.511 71.628 c -1.403 0 -2.71 -0.559 -3.68 -1.572 c -0.97 -1.015 -1.469 -2.345 -1.407 -3.747 L 4.612 39.75 l -2.474 -2.588 c -1.452 -1.518 -2.228 -3.593 -2.13 -5.691 l 0.565 -12.145 c 0.026 -0.552 0.524 -0.96 1.045 -0.953 c 0.552 0.026 0.978 0.494 0.953 1.045 L 2.006 31.563 c -0.072 1.555 0.502 3.092 1.578 4.217 l 2.769 2.897 c 0.189 0.197 0.289 0.463 0.276 0.735 L 5.423 66.399 c -0.038 0.851 0.266 1.659 0.855 2.274 c 1.178 1.233 3.291 1.232 4.469 0 c 0.588 -0.616 0.892 -1.424 0.854 -2.274 l -1.206 -26.986 c -0.012 -0.272 0.087 -0.538 0.276 -0.735 l 2.769 -2.897 c 1.075 -1.125 1.65 -2.662 1.578 -4.217 l -0.565 -12.145 c -0.025 -0.552 0.401 -1.02 0.953 -1.045 c 0.537 -0.024 1.02 0.4 1.045 0.953 l 0.565 12.145 c 0.097 2.099 -0.68 4.173 -2.131 5.691 l -2.474 2.588 l 1.187 26.559 c 0.063 1.401 -0.437 2.732 -1.406 3.746 C 11.222 71.07 9.914 71.628 8.511 71.628 z" style="stroke: none; stroke-width: 1; stroke-dasharray: none; stroke-linecap: butt; stroke-linejoin: miter; stroke-miterlimit: 10; fill: rgb(255,215,0); fill-rule: nonzero; opacity: 1;" transform=" matrix(1 0 0 1 0 0) " stroke-linecap="round" />
	<path d="M 6.066 33.907 c -0.552 0 -1 -0.448 -1 -1 V 19.372 c 0 -0.552 0.448 -1 1 -1 s 1 0.448 1 1 v 13.534 C 7.066 33.459 6.618 33.907 6.066 33.907 z" style="stroke: none; stroke-width: 1; stroke-dasharray: none; stroke-linecap: butt; stroke-linejoin: miter; stroke-miterlimit: 10; fill: rgb(255,215,0); fill-rule: nonzero; opacity: 1;" transform=" matrix(1 0 0 1 0 0) " stroke-linecap="round" />
	<path d="M 10.956 33.907 c -0.552 0 -1 -0.448 -1 -1 V 19.372 c 0 -0.552 0.448 -1 1 -1 c 0.552 0 1 0.448 1 1 v 13.534 C 11.956 33.459 11.509 33.907 10.956 33.907 z" style="stroke: none; stroke-width: 1; stroke-dasharray: none; stroke-linecap: butt; stroke-linejoin: miter; stroke-miterlimit: 10; fill: rgb(255,215,0); fill-rule: nonzero; opacity: 1;" transform=" matrix(1 0 0 1 0 0) " stroke-linecap="round" />
	<path d="M 81.658 71.628 c -1.402 0 -2.709 -0.559 -3.68 -1.572 c -0.97 -1.014 -1.47 -2.345 -1.407 -3.746 l 1.085 -24.271 l -1.216 -1.22 c -2.72 -2.729 -3.767 -6.73 -2.731 -10.442 l 2.114 -7.576 c 0.728 -2.607 3.127 -4.428 5.834 -4.428 s 5.107 1.821 5.834 4.428 l 2.114 7.575 c 1.036 3.712 -0.011 7.714 -2.731 10.443 l -1.216 1.22 l 1.085 24.27 c 0.063 1.402 -0.438 2.733 -1.407 3.747 C 84.367 71.07 83.06 71.628 81.658 71.628 z M 81.658 20.372 c -1.814 0 -3.42 1.22 -3.908 2.966 l -2.114 7.575 c -0.842 3.019 0.009 6.273 2.221 8.492 l 1.526 1.532 c 0.198 0.199 0.304 0.471 0.291 0.75 l -1.105 24.71 c -0.038 0.851 0.266 1.659 0.855 2.274 c 1.178 1.232 3.291 1.232 4.469 0 c 0.589 -0.615 0.893 -1.424 0.855 -2.275 l -1.105 -24.709 c -0.013 -0.28 0.093 -0.552 0.291 -0.75 l 1.526 -1.532 l 0 0 c 2.212 -2.219 3.063 -5.473 2.221 -8.493 l -2.114 -7.575 C 85.078 21.592 83.471 20.372 81.658 20.372 z" style="stroke: none; stroke-width: 1; stroke-dasharray: none; stroke-linecap: butt; stroke-linejoin: miter; stroke-miterlimit: 10; fill: rgb(255,215,0); fill-rule: nonzero; opacity: 1;" transform=" matrix(1 0 0 1 0 0) " stroke-linecap="round" />
	<path d="M 45 71.628 c -14.683 0 -26.628 -11.946 -26.628 -26.628 S 30.317 18.372 45 18.372 S 71.628 30.317 71.628 45 S 59.683 71.628 45 71.628 z M 45 20.372 C 31.42 20.372 20.372 31.42 20.372 45 c 0 13.58 11.048 24.628 24.628 24.628 c 13.58 0 24.628 -11.048 24.628 -24.628 C 69.628 31.42 58.58 20.372 45 20.372 z" style="stroke: none; stroke-width: 1; stroke-dasharray: none; stroke-linecap: butt; stroke-linejoin: miter; stroke-miterlimit: 10; fill: rgb(255,215,0); fill-rule: nonzero; opacity: 1;" transform=" matrix(1 0 0 1 0 0) " stroke-linecap="round" />
	<path d="M 45 63.5 c -10.201 0 -18.5 -8.299 -18.5 -18.5 S 34.799 26.5 45 26.5 S 63.5 34.799 63.5 45 S 55.201 63.5 45 63.5 z M 45 28.5 c -9.098 0 -16.5 7.402 -16.5 16.5 c 0 9.098 7.402 16.5 16.5 16.5 c 9.098 0 16.5 -7.402 16.5 -16.5 C 61.5 35.902 54.098 28.5 45 28.5 z" style="stroke: none; stroke-width: 1; stroke-dasharray: none; stroke-linecap: butt; stroke-linejoin: miter; stroke-miterlimit: 10; fill: rgb(255,215,0); fill-rule: nonzero; opacity: 1;" transform=" matrix(1 0 0 1 0 0) " stroke-linecap="round" />
	<path d="M 35 46 c -0.552 0 -1 -0.448 -1 -1 c 0 -6.066 4.935 -11 11 -11 c 0.552 0 1 0.448 1 1 c 0 0.552 -0.448 1 -1 1 c -4.962 0 -9 4.038 -9 9 C 36 45.552 35.552 46 35 46 z" style="stroke: none; stroke-width: 1; stroke-dasharray: none; stroke-linecap: butt; stroke-linejoin: miter; stroke-miterlimit: 10; fill: rgb(255,215,0); fill-rule: nonzero; opacity: 1;" transform=" matrix(1 0 0 1 0 0) " stroke-linecap="round" />
</g>
</svg>